<svg xmlns="http://www.w3.org/2000/svg" xmlns:xlink="http://www.w3.org/1999/xlink" version="1.1" x="0px" y="0px" viewBox="0 0 100 125" enable-background="new 0 0 100 100" xml:space="preserve"><g><path d="M69.445,70.756c-0.591,0-1.182-0.223-1.637-0.671l-35.717-35.28c-0.915-0.903-0.925-2.376-0.021-3.292   c0.905-0.915,2.377-0.923,3.291-0.02L71.08,66.772c0.915,0.903,0.924,2.377,0.021,3.292C70.646,70.525,70.044,70.756,69.445,70.756   z"/></g><g><path d="M33.727,70.756c-0.6,0-1.2-0.23-1.655-0.692c-0.904-0.915-0.895-2.388,0.021-3.292l35.717-35.279   c0.915-0.903,2.388-0.895,3.292,0.02c0.903,0.915,0.895,2.388-0.021,3.292l-35.718,35.28   C34.908,70.533,34.317,70.756,33.727,70.756z"/></g></svg>