<svg xmlns="http://www.w3.org/2000/svg" xmlns:xlink="http://www.w3.org/1999/xlink" version="1.1" x="0px" y="0px" viewBox="0 0 100 125" enable-background="new 0 0 100 100" xml:space="preserve"><g><path d="M72.492,54.743c2.548-0.733,3.379-2.692,2.33-7.903l-0.065-0.175c-1.714-3.002-8.786-1.476-11.807-1.476   c-4.668,0-9.335,0-14.003,0c-5.444,0-10.888,0-16.331,0c-5.318,0-8.878-0.154-7.631,7.006c0.605,3.465,2.174,2.982,5.267,2.981   c5.792-0.002,11.583,0,17.375,0c5.849,0,11.699,0,17.548,0C68.342,55.176,70.797,55.23,72.492,54.743z"/></g></svg>