<?xml version="1.0" encoding="UTF-8"?><svg xmlns="http://www.w3.org/2000/svg" xmlns:xlink="http://www.w3.org/1999/xlink" version="1.1" x="0px" y="0px" viewBox="0 0 24 30" enable-background="new 0 0 24 24" xml:space="preserve"><path d="M21.202,23.406H2.797c-1.413,0-2.562-1.149-2.562-2.563V3.156c0-1.413,1.149-2.563,2.562-2.563h18.405  c1.413,0,2.563,1.149,2.563,2.563v17.688C23.765,22.257,22.615,23.406,21.202,23.406z M2.797,1.893  c-0.696,0-1.262,0.566-1.262,1.263v17.688c0,0.696,0.566,1.263,1.262,1.263h18.405c0.696,0,1.263-0.566,1.263-1.263V3.156  c0-0.696-0.566-1.263-1.263-1.263C21.202,1.893,2.797,1.893,2.797,1.893z"/></svg>